# xmcd
#
# Track frame offsets:
#	150
#	33945
#	39127
#	58087
#	81547
#	100990
#	113302
#	138930
#	164957
#	183827
#	207730
#	238382
#	257232
#	282495
#	323525
#
# Disc length: 4376 seconds
#
# Revision: 0
# Processed by: cddbd v1.5.2PL0 Copyright (c) Steve Scherf et al.
# Submitted via: dBpowerAMP V4.0
#
DISCID=db11160f
DTITLE=Pointer Sisters - Live at the Opera House
DYEAR=1974
DGENRE=Blues
TTITLE0=Overture
TTITLE1=Walk-on
TTITLE2=Salt Peanuts
TTITLE3=Shaky Flat Blues
TTITLE4=Fairytale
TTITLE5=Cloudburst
TTITLE6=Jada
TTITLE7=Black Coffee
TTITLE8=Let it be me
TTITLE9=Hands up/Wang Dang Doodle
TTITLE10=Old Songs (medley)
TTITLE11=Steam Heat
TTITLE12=Yes we can
TTITLE13=Love in them there hills
TTITLE14=Walk-off
EXTD=
EXTT0=
EXTT1=
EXTT2=
EXTT3=
EXTT4=
EXTT5=
EXTT6=
EXTT7=
EXTT8=
EXTT9=
EXTT10=
EXTT11=
EXTT12=
EXTT13=
EXTT14=
PLAYORDER=
